<?xml version="1.0" encoding="UTF-8" standalone="no" ?>
<!DOCTYPE svg PUBLIC "-//W3C//DTD SVG 1.1//EN" "http://www.w3.org/Graphics/SVG/1.1/DTD/svg11.dtd">
<svg xmlns="http://www.w3.org/2000/svg" xmlns:xlink="http://www.w3.org/1999/xlink" version="1.1" width="354.3307px" height="354.3307px" viewBox="0 0 354.3307 354.3307" xml:space="preserve">
<desc>Created with Fabric.js 6.0.0-beta12</desc>
<defs>
</defs>
<rect x="0" y="0" width="100%" height="100%" fill="rgba(255,255,255,0)"></rect>
<g transform="matrix(1 0 0 1 177.6653 177.6653)" id="WorkSpaceDrawType"  >
<rect style="stroke: rgb(255,255,255); stroke-width: 1; stroke-dasharray: none; stroke-linecap: butt; stroke-dashoffset: 0; stroke-linejoin: miter; stroke-miterlimit: 4; fill: rgb(255,255,255); fill-rule: nonzero; opacity: 1;"  x="-177.16535" y="-177.16535" rx="0" ry="0" width="354.3307" height="354.3307" />
</g>
<g transform="matrix(3.0096 0 0 3.0096 177.7811 177.7811)" id="YnWTSYMj"  >
<path style="stroke: none; stroke-width: 1; stroke-dasharray: none; stroke-linecap: butt; stroke-dashoffset: 0; stroke-linejoin: miter; stroke-miterlimit: 4; fill: rgb(255,94,24); fill-rule: nonzero; opacity: 1;"  transform=" translate(-58.405, -58.405)" d="M 88.78 0.01 L 89.94 0.05 L 90.52 0.08 L 91.11 0.11 L 91.69 0.15 L 92.27 0.2 L 93.43 0.32 L 94.59 0.48 L 95.17 0.57 L 95.74 0.66 L 96.32 0.77 L 96.89 0.88 L 97.46 1.01 L 98.02 1.14 L 98.59 1.29 L 99.16 1.45 L 99.72 1.61 L 100.27 1.79 L 100.83 1.98 L 101.38 2.18 L 101.92 2.39 L 102.46 2.61 L 102.99 2.85 L 103.53 3.1 L 104.04 3.35 L 104.56 3.63 L 105.08 3.92 L 105.58 4.21 L 106.07 4.52 L 106.55 4.85 L 107.03 5.19 L 107.5 5.54 L 107.95 5.9 L 108.4 6.28 L 108.83 6.66 L 109.26 7.06 L 109.68 7.47 L 110.08 7.9 L 110.47 8.33 L 110.85 8.78 L 111.21 9.23 L 111.57 9.7 L 112.23 10.66 L 112.54 11.15 L 112.85 11.66 L 113.13 12.16 L 113.41 12.68 L 113.67 13.2 L 113.92 13.72 L 114.38 14.8 L 114.59 15.34 L 114.8 15.9 L 114.99 16.45 L 115.16 17 L 115.33 17.56 L 115.49 18.13 L 115.64 18.69 L 115.77 19.25 L 115.9 19.83 L 116.02 20.39 L 116.13 20.97 L 116.22 21.54 L 116.4 22.7 L 116.54 23.86 L 116.59 24.44 L 116.64 25.03 L 116.69 25.61 L 116.75 26.77 L 116.78 27.36 L 116.81 29.1 L 116.81 87.51 L 116.8 88.09 L 116.8 88.68 L 116.76 89.84 L 116.73 90.43 L 116.7 91.01 L 116.66 91.59 L 116.61 92.17 L 116.56 92.76 L 116.42 93.92 L 116.34 94.5 L 116.25 95.08 L 116.16 95.65 L 116.05 96.22 L 115.94 96.8 L 115.82 97.37 L 115.68 97.94 L 115.54 98.5 L 115.38 99.07 L 115.22 99.62 L 115.04 100.19 L 114.86 100.74 L 114.66 101.29 L 114.45 101.83 L 114.23 102.37 L 114 102.9 L 113.75 103.44 L 113.49 103.97 L 113.22 104.48 L 112.94 104.98 L 112.64 105.5 L 112.33 105.99 L 112.01 106.48 L 111.33 107.42 L 110.96 107.88 L 110.59 108.33 L 110.21 108.77 L 109.81 109.2 L 109.4 109.61 L 108.98 110.02 L 108.54 110.41 L 108.1 110.78 L 107.65 111.15 L 107.18 111.51 L 106.7 111.85 L 106.22 112.18 L 105.73 112.49 L 105.24 112.79 L 104.73 113.09 L 103.69 113.63 L 103.16 113.88 L 102.63 114.12 L 102.1 114.34 L 101.56 114.56 L 101 114.76 L 100.45 114.96 L 99.89 115.14 L 99.34 115.31 L 98.77 115.47 L 98.21 115.61 L 97.64 115.75 L 97.07 115.88 L 96.51 116 L 95.93 116.11 L 95.35 116.21 L 94.77 116.3 L 94.2 116.38 L 93.62 116.46 L 93.04 116.53 L 92.46 116.58 L 91.87 116.64 L 90.71 116.72 L 90.13 116.75 L 89.54 116.77 L 88.96 116.79 L 88.38 116.8 L 87.79 116.81 L 29.39 116.81 L 28.8 116.8 L 28.23 116.8 L 27.05 116.76 L 26.47 116.74 L 25.89 116.71 L 25.31 116.67 L 24.72 116.62 L 23.56 116.5 L 22.99 116.43 L 22.4 116.36 L 21.82 116.27 L 21.25 116.17 L 20.67 116.07 L 20.1 115.96 L 19.53 115.84 L 18.95 115.7 L 18.4 115.56 L 17.83 115.41 L 17.27 115.25 L 16.7 115.07 L 16.16 114.89 L 15.6 114.69 L 15.06 114.49 L 14.52 114.27 L 13.98 114.03 L 13.45 113.79 L 12.92 113.53 L 12.41 113.27 L 11.89 112.98 L 11.39 112.69 L 10.9 112.38 L 10.4 112.06 L 9.93 111.73 L 9.46 111.38 L 9 111.03 L 8.55 110.65 L 8.11 110.27 L 7.68 109.87 L 7.26 109.46 L 6.85 109.04 L 6.46 108.61 L 6.08 108.17 L 5.71 107.72 L 5.35 107.26 L 5.01 106.78 L 4.68 106.31 L 4.36 105.81 L 4.05 105.31 L 3.77 104.81 L 3.48 104.29 L 3.22 103.78 L 2.96 103.25 L 2.72 102.72 L 2.49 102.18 L 2.28 101.64 L 2.07 101.09 L 1.88 100.54 L 1.7 99.98 L 1.52 99.43 L 1.37 98.87 L 1.21 98.3 L 1.08 97.74 L 0.95 97.17 L 0.82 96.59 L 0.71 96.02 L 0.61 95.45 L 0.43 94.29 L 0.29 93.13 L 0.23 92.55 L 0.13 91.39 L 0.09 90.8 L 0.06 90.22 L 0.04 89.63 L 0.02 89.05 L 0 87.89 L 0 28.9 L 0.01 28.31 L 0.02 27.73 L 0.04 27.14 L 0.06 26.57 L 0.09 25.98 L 0.13 25.4 L 0.18 24.82 L 0.23 24.23 L 0.29 23.65 L 0.36 23.07 L 0.52 21.91 L 0.62 21.34 L 0.72 20.76 L 0.83 20.19 L 0.95 19.61 L 1.08 19.05 L 1.22 18.49 L 1.37 17.92 L 1.53 17.36 L 1.7 16.8 L 1.89 16.24 L 2.08 15.7 L 2.29 15.15 L 2.5 14.61 L 2.73 14.07 L 2.97 13.54 L 3.23 13.01 L 3.49 12.49 L 4.07 11.47 L 4.37 10.97 L 4.69 10.48 L 5.02 10.01 L 5.37 9.53 L 5.72 9.07 L 6.09 8.62 L 6.48 8.17 L 6.87 7.75 L 7.27 7.33 L 7.69 6.92 L 8.12 6.52 L 8.56 6.14 L 9.02 5.77 L 9.47 5.41 L 9.94 5.07 L 10.42 4.73 L 10.91 4.41 L 11.91 3.81 L 12.43 3.53 L 12.94 3.26 L 14 2.76 L 14.54 2.53 L 15.08 2.31 L 15.62 2.11 L 16.18 1.91 L 16.73 1.73 L 17.29 1.55 L 17.85 1.39 L 18.42 1.24 L 18.98 1.1 L 19.54 0.97 L 20.12 0.84 L 20.69 0.73 L 21.85 0.53 L 22.42 0.45 L 23 0.37 L 23.58 0.3 L 24.74 0.18 L 25.33 0.14 L 25.91 0.1 L 27.07 0.04 L 27.65 0.02 L 28.24 0.01 L 28.82 0 L 88.19 0 Z M 31.01 14.54 L 30.6 15.23 L 30.45 16.22 L 30.3 17.2 L 30.15 18.19 L 29.99 19.19 L 29.84 20.17 L 29.69 21.17 L 29.53 22.14 L 29.23 24.12 L 29.07 25.12 L 28.92 26.09 L 28.77 27.09 L 28.62 28.07 L 28.46 29.05 L 28.16 31.05 L 28.01 32.02 L 27.85 33.01 L 27.7 34 L 27.29 34.7 L 20.29 34.7 L 19.62 35.07 L 19.47 36.06 L 19.32 37.04 L 19.18 38.04 L 19.03 39.02 L 18.89 40.01 L 18.74 41.01 L 18.59 42 L 18.45 42.99 L 18.3 43.98 L 18.15 44.96 L 18.82 45.26 L 25.82 45.26 L 25.77 46.14 L 25.62 47.14 L 25.46 48.14 L 25.31 49.11 L 25.15 50.11 L 25 51.09 L 24.84 52.07 L 24.69 53.07 L 24.53 54.06 L 24.38 55.04 L 24.23 56.03 L 24.07 57.01 L 23.92 58 L 23.76 58.99 L 23.61 59.98 L 23.45 60.97 L 23.3 61.96 L 23.14 62.95 L 22.99 63.93 L 22.83 64.93 L 22.68 65.91 L 22.52 66.9 L 22.37 67.9 L 22.21 68.87 L 22.06 69.86 L 21.9 70.86 L 21.75 71.83 L 21.6 72.83 L 21.44 73.81 L 21.29 74.79 L 21.13 75.78 L 20.98 76.78 L 20.82 77.76 L 20.67 78.75 L 20.51 79.75 L 20.36 80.73 L 20.2 81.72 L 20.05 82.71 L 19.89 83.7 L 19.74 84.69 L 19.58 85.67 L 19.43 86.65 L 19.41 86.78 L 19.27 87.78 L 19.14 88.76 L 19.03 89.77 L 18.94 90.76 L 18.87 91.75 L 18.83 92.75 L 18.82 93.75 L 18.83 94.75 L 18.88 95.75 L 18.97 96.75 L 19.11 97.75 L 19.29 98.72 L 19.53 99.7 L 19.81 100.65 L 20.15 101.59 L 20.54 102.5 L 21 103.4 L 21.53 104.25 L 22.12 105.04 L 22.8 105.78 L 23.55 106.44 L 24.36 107.04 L 25.21 107.56 L 26.1 108 L 27.04 108.37 L 28 108.66 L 28.97 108.88 L 29.95 109.02 L 30.95 109.1 L 31.96 109.14 L 32.96 109.12 L 33.96 109.06 L 34.95 108.95 L 35.94 108.8 L 36.92 108.6 L 37.89 108.37 L 38.85 108.12 L 39.82 107.84 L 40.77 107.54 L 41.72 107.22 L 42.65 106.88 L 43.59 106.51 L 44.51 106.12 L 44.99 105.53 L 44.29 103.67 L 43.93 102.73 L 43.58 101.8 L 43.22 100.85 L 42.87 99.92 L 42.52 99 L 42.16 98.06 L 41.81 97.13 L 41.46 96.19 L 40.71 96.47 L 39.84 96.99 L 38.95 97.43 L 38.03 97.8 L 37.06 98.09 L 36.09 98.25 L 35.09 98.29 L 34.1 98.19 L 33.14 97.87 L 32.31 97.33 L 31.65 96.56 L 31.2 95.69 L 30.91 94.73 L 30.73 93.74 L 30.63 92.75 L 30.58 91.75 L 30.58 90.75 L 30.62 89.74 L 30.68 88.76 L 30.77 87.76 L 30.88 86.76 L 31.01 85.77 L 31.15 84.79 L 31.3 83.79 L 31.45 82.8 L 31.6 81.82 L 31.75 80.82 L 31.89 79.84 L 32.04 78.85 L 32.19 77.87 L 32.34 76.86 L 32.49 75.89 L 32.64 74.89 L 32.78 73.91 L 32.93 72.92 L 33.08 71.94 L 33.23 70.94 L 33.37 69.96 L 33.67 67.96 L 33.97 66 L 34.11 65 L 34.26 64.01 L 34.41 63.03 L 34.56 62.04 L 34.71 61.04 L 34.85 60.07 L 35 59.08 L 35.15 58.08 L 35.6 55.11 L 35.74 54.13 L 35.89 53.13 L 36.04 52.15 L 36.19 51.15 L 36.34 50.17 L 36.48 49.17 L 36.63 48.19 L 36.93 46.21 L 37.11 45.26 L 50.11 45.26 L 50.8 44.91 L 51.1 42.93 L 51.24 41.94 L 51.39 40.95 L 51.53 39.96 L 51.68 38.96 L 51.83 37.98 L 51.97 36.99 L 52.12 36 L 52.26 35.01 L 51.64 34.7 L 39.64 34.7 L 38.77 34.58 L 38.92 33.58 L 39.06 32.6 L 39.36 30.62 L 39.5 29.64 L 39.65 28.65 L 39.8 27.65 L 39.95 26.67 L 40.09 25.68 L 40.54 22.71 L 40.68 21.72 L 40.83 20.72 L 40.98 19.74 L 41.12 18.75 L 41.27 17.75 L 41.42 16.77 L 41.57 15.78 L 41.71 14.79 L 41.01 14.54 Z M 64.25 7.1 L 63.75 7.69 L 63.61 8.68 L 63.47 9.66 L 63.19 11.64 L 63.05 12.64 L 62.9 13.63 L 62.77 14.61 L 62.63 15.6 L 62.48 16.6 L 62.34 17.59 L 62.2 18.59 L 62.07 19.56 L 61.92 20.56 L 61.78 21.54 L 61.64 22.54 L 61.5 23.53 L 61.36 24.51 L 61.22 25.51 L 61.08 26.5 L 60.94 27.5 L 60.8 28.47 L 60.66 29.47 L 59.54 37.39 L 59.4 38.39 L 59.26 39.37 L 58.98 41.35 L 58.84 42.33 L 58.56 44.33 L 58.42 45.31 L 58.28 46.3 L 58.14 47.3 L 58 48.28 L 57.86 49.28 L 57.72 50.27 L 57.58 51.25 L 57.43 52.25 L 57.29 53.24 L 57.16 54.21 L 57.02 55.21 L 56.87 56.21 L 56.73 57.2 L 56.59 58.18 L 56.45 59.18 L 56.31 60.15 L 56.17 61.15 L 55.47 66.1 L 55.33 67.1 L 55.19 68.08 L 54.91 70.06 L 54.77 71.06 L 54.63 72.04 L 54.07 76 L 53.93 77 L 53.79 77.98 L 53.65 78.98 L 53.51 79.97 L 53.37 80.95 L 53.09 82.93 L 52.95 83.93 L 52.81 84.91 L 52.53 86.89 L 52.38 87.89 L 52.25 88.88 L 52.11 89.86 L 51.83 91.84 L 51.68 92.83 L 51.54 93.83 L 50.98 97.79 L 50.84 98.77 L 50.7 99.78 L 50.56 100.75 L 50.42 101.74 L 50.28 102.74 L 50.14 103.73 L 50 104.71 L 49.72 106.69 L 49.58 107.69 L 50.33 107.9 L 60.34 107.9 L 61.21 107.75 L 61.35 106.77 L 61.49 105.77 L 61.63 104.79 L 61.77 103.8 L 61.92 102.8 L 62.76 96.86 L 62.9 95.86 L 63.04 94.87 L 63.18 93.89 L 63.32 92.89 L 63.46 91.91 L 63.61 90.91 L 63.74 89.94 L 63.89 88.93 L 64.03 87.96 L 64.17 86.95 L 64.31 85.96 L 64.45 84.98 L 64.73 83 L 64.87 82 L 65.01 81.02 L 65.15 80.02 L 65.29 79.05 L 65.43 78.06 L 65.58 77.05 L 65.72 76.08 L 66 74.08 L 66.14 73.11 L 66.42 71.11 L 66.56 70.13 L 66.7 69.13 L 66.84 68.15 L 66.98 67.16 L 67.12 66.16 L 67.27 65.17 L 67.4 64.19 L 67.55 63.19 L 67.83 61.21 L 67.97 60.24 L 68.11 59.24 L 68.25 58.25 L 68.39 57.27 L 68.4 57.23 L 68.62 56.25 L 68.87 55.29 L 69.15 54.33 L 69.47 53.37 L 69.82 52.45 L 70.21 51.53 L 70.66 50.62 L 71.16 49.75 L 71.71 48.93 L 72.33 48.14 L 73.01 47.41 L 73.78 46.76 L 74.6 46.2 L 75.48 45.74 L 76.41 45.4 L 77.39 45.16 L 78.39 45.04 L 79.38 45.02 L 80.38 45.11 L 81.36 45.33 L 82.28 45.7 L 83.12 46.24 L 83.83 46.94 L 84.41 47.75 L 84.86 48.66 L 85.17 49.59 L 85.4 50.58 L 85.54 51.55 L 85.62 52.55 L 85.64 53.56 L 85.62 54.56 L 85.55 55.55 L 85.46 56.55 L 85.34 57.54 L 85.2 58.53 L 85.06 59.53 L 84.92 60.51 L 84.5 63.48 L 84.36 64.48 L 84.22 65.47 L 84.08 66.47 L 83.94 67.45 L 83.81 68.43 L 83.66 69.43 L 83.52 70.42 L 83.39 71.41 L 83.11 73.39 L 82.97 74.37 L 82.83 75.38 L 82.69 76.35 L 82.55 77.36 L 82.41 78.33 L 82.27 79.33 L 81.99 81.31 L 81.85 82.31 L 81.71 83.28 L 81.57 84.28 L 81.43 85.27 L 81.3 86.26 L 81.15 87.26 L 81.02 88.24 L 80.88 89.22 L 80.74 90.22 L 80.6 91.2 L 80.46 92.21 L 80.32 93.19 L 80.04 95.17 L 79.9 96.17 L 79.76 97.15 L 79.62 98.14 L 79.48 99.14 L 79.34 100.13 L 79.2 101.1 L 78.92 103.1 L 78.64 105.08 L 78.51 106.06 L 78.37 107.06 L 78.27 108.02 L 89.26 108.02 L 90.13 107.87 L 90.41 105.89 L 90.55 104.89 L 90.69 103.9 L 90.83 102.92 L 90.96 101.93 L 91.24 99.95 L 91.38 98.95 L 91.52 97.97 L 91.66 96.98 L 91.8 95.98 L 91.94 95 L 92.07 94.01 L 92.21 93.02 L 92.35 92.02 L 92.49 91.03 L 92.63 90.05 L 92.77 89.06 L 92.91 88.06 L 93.05 87.07 L 93.19 86.09 L 93.33 85.08 L 93.47 84.09 L 93.6 83.1 L 93.74 82.13 L 93.88 81.13 L 94.3 78.16 L 94.44 77.16 L 94.57 76.19 L 94.72 75.18 L 94.85 74.2 L 94.99 73.2 L 95.13 72.23 L 95.27 71.23 L 95.41 70.24 L 95.55 69.24 L 95.69 68.25 L 95.82 67.27 L 95.97 66.27 L 96.1 65.29 L 96.24 64.29 L 96.38 63.3 L 96.52 62.32 L 96.8 60.34 L 96.94 59.34 L 97.08 58.35 L 97.21 57.37 L 97.35 56.37 L 97.49 55.38 L 97.62 54.4 L 97.73 53.4 L 97.82 52.4 L 97.89 51.39 L 97.92 50.41 L 97.93 49.4 L 97.9 48.39 L 97.84 47.41 L 97.73 46.42 L 97.57 45.43 L 97.36 44.44 L 97.08 43.49 L 96.74 42.54 L 96.35 41.63 L 95.9 40.74 L 95.39 39.87 L 94.82 39.05 L 94.18 38.29 L 93.48 37.58 L 92.7 36.95 L 91.88 36.39 L 91 35.91 L 90.08 35.48 L 89.16 35.13 L 88.19 34.84 L 87.22 34.62 L 86.23 34.47 L 85.24 34.37 L 84.25 34.34 L 83.24 34.37 L 82.24 34.47 L 81.25 34.63 L 80.28 34.85 L 79.32 35.12 L 78.38 35.43 L 77.45 35.79 L 76.52 36.2 L 75.64 36.66 L 74.79 37.19 L 73.97 37.76 L 73.19 38.38 L 72.44 39.05 L 71.72 39.76 L 71.05 40.5 L 70.73 40.53 L 70.87 39.55 L 71.01 38.56 L 71.15 37.55 L 71.29 36.57 L 71.57 34.59 L 71.71 33.59 L 71.85 32.62 L 72.13 30.62 L 72.27 29.65 L 72.41 28.65 L 72.55 27.66 L 72.7 26.66 L 72.84 25.68 L 72.98 24.69 L 73.12 23.69 L 73.26 22.7 L 73.4 21.72 L 73.54 20.73 L 73.68 19.73 L 73.82 18.74 L 73.96 17.76 L 74.1 16.77 L 74.24 15.77 L 74.38 14.78 L 74.52 13.8 L 74.66 12.8 L 74.8 11.82 L 74.94 10.82 L 75.08 9.84 L 75.22 8.85 L 75.36 7.85 L 75.23 7.1 Z" stroke-linecap="round" />
</g>
</svg>